<?xml version="1.0" encoding="iso-8859-1"?>
<!-- Generator: Adobe Illustrator 19.0.0, SVG Export Plug-In . SVG Version: 6.00 Build 0)  -->
<svg xmlns="http://www.w3.org/2000/svg" xmlns:xlink="http://www.w3.org/1999/xlink" version="1.1" id="Layer_1" x="0px" y="0px" viewBox="0 0 512 512" style="enable-background:new 0 0 512 512;" xml:space="preserve" width="512px" height="512px">
<g>
	<g>
		<path d="M455.111,199.111h-14.222h-14.222c-11.782,0-21.333,9.552-21.333,21.333c0,9.284,5.942,17.162,14.222,20.093v29.685    h-49.778h-7.111V106.667C362.667,47.851,314.816,0,256.001,0c-58.817,0-106.668,47.851-106.668,106.667v163.556h-7.111H92.444    v-29.685c8.28-2.933,14.222-10.809,14.222-20.093c0-11.782-9.552-21.333-21.333-21.333H71.111H56.889    c-11.782,0-21.333,9.552-21.333,21.333c0,9.284,5.942,17.162,14.222,20.093v51.018c0,11.782,9.552,21.333,21.333,21.333h49.778v64    c0,11.782,9.552,21.333,21.333,21.333h92.444v42.667h-92.444c-11.782,0-21.333,9.552-21.333,21.333v28.444    c0,11.782,9.552,21.333,21.333,21.333s21.333-9.552,21.333-21.333v-7.111h71.111v7.111c0,11.782,9.552,21.333,21.333,21.333    s21.333-9.552,21.333-21.333v-7.111h71.111v7.111c0,11.782,9.552,21.333,21.333,21.333s21.333-9.552,21.333-21.333v-28.444    c0-11.782-9.552-21.333-21.333-21.333h-92.444v-42.667h92.444c11.782,0,21.333-9.552,21.333-21.333v-64h49.778    c11.782,0,21.333-9.552,21.333-21.333v-51.018c8.28-2.933,14.222-10.809,14.222-20.093    C476.444,208.663,466.893,199.111,455.111,199.111z" fill="#89BDD3"/>
	</g>
</g>
<g>
</g>
<g>
</g>
<g>
</g>
<g>
</g>
<g>
</g>
<g>
</g>
<g>
</g>
<g>
</g>
<g>
</g>
<g>
</g>
<g>
</g>
<g>
</g>
<g>
</g>
<g>
</g>
<g>
</g>
</svg>
